<svg width="48" height="48" viewBox="0 0 48 48" fill="none" xmlns="http://www.w3.org/2000/svg">
<path d="M2 48C0.895429 48 0 47.1046 0 46V2C0 0.895432 0.895431 0 2 0H24.1348C28.9438 0 32.9101 0.578126 36.0337 1.73438C39.1573 2.875 41.4831 4.41406 43.0112 6.35156C44.5393 8.27344 45.3034 10.4062 45.3034 12.75C45.3034 14.8125 44.7753 16.5156 43.7191 17.8594C42.6854 19.2031 41.3146 20.2656 39.6067 21.0469C37.9822 21.7999 36.2219 22.3642 34.3259 22.7398C34.2022 22.7644 34.1124 22.8726 34.1124 22.9988C34.1124 23.1393 34.223 23.2547 34.3632 23.2631C36.3928 23.3852 38.4328 23.8965 40.4831 24.7969C42.618 25.7344 44.4045 27.0781 45.8427 28.8281C47.2809 30.5781 48 32.7188 48 35.25C48 37.6562 47.2135 39.8203 45.6404 41.7422C44.0674 43.6641 41.5843 45.1875 38.191 46.3125C34.7978 47.4375 30.382 48 24.9438 48H2Z" fill="#F1F1F1"/>
<circle cx="35" cy="12" r="7" fill="#062B04"/>
</svg>
