<svg width="48" height="48" viewBox="0 0 48 48" fill="none" xmlns="http://www.w3.org/2000/svg">
<path d="M7 43C5.89543 43 5 42.1046 5 41V8C5 6.89543 5.89543 6 7 6H24.6096C28.5169 6 31.7395 6.44564 34.2774 7.33692C36.8153 8.21615 38.7051 9.40251 39.9466 10.896C41.1882 12.3774 41.809 14.0215 41.809 15.8281C41.809 17.418 41.3799 18.7308 40.5218 19.7666C39.6819 20.8024 38.5681 21.6214 37.1805 22.2236C35.8583 22.8051 34.4254 23.2406 32.8819 23.5301C32.7861 23.5481 32.7163 23.6314 32.7163 23.7289V23.7289C32.7163 23.8368 32.8013 23.9253 32.9091 23.9314C34.5618 24.0243 36.2229 24.4186 37.8926 25.1143C39.6271 25.8369 41.0787 26.8727 42.2472 28.2217C43.4157 29.5706 44 31.2207 44 33.1719C44 35.0267 43.361 36.6948 42.0829 38.1763C40.8048 39.6577 38.7872 40.832 36.0302 41.6992C33.2732 42.5664 29.6854 43 25.2669 43H7Z" fill="#F1F1F1"/>
<circle cx="34" cy="15" r="6" fill="#062B04"/>
</svg>
